<svg xmlns="http://www.w3.org/2000/svg" width="506" height="440" viewBox="-0.236 0 506 440" enable-background="new -0.236 0 506 440"><path fill="none" d="M370.176 423l33.67-58.682zm-293.5-102.157L17.89 218.498zm23.934 41.67L135.35 423l-34.74-60.487zm328.115-41.56l58.836-102.547z"/><path opacity=".8" fill="#F16D2A" enable-background="new" d="M130.514 250.962l68.49-16.398c.055-.14.045-.287.108-.422l13.233-26.623c-22.82 5.82-41.24 10.59-50.013 13.02-14.81 4.1-24.936 16.317-31.818 30.42zm230.466 97.475c-17.02 11.686-39.718 15.92-55.962 15.92-16.285 0-39.002-4.234-56.036-15.94-17.017 11.696-39.752 15.94-56.027 15.94-16.28 0-39-4.234-56.032-15.94-10.83 7.448-23.98 11.866-36.313 14.1L135.35 423h234.826l33.67-58.682c-15.502-.393-28.305-5.102-42.865-15.88zM94.7 352.222c13.018-1.877 27.895-6.44 38.794-15.035 2.02-1.58 4.847-1.58 6.866 0 15.106 11.88 37.78 16.092 52.605 16.092 14.835 0 37.51-4.215 52.605-16.094 2-1.58 4.85-1.58 6.863 0 15.096 11.88 37.77 16.092 52.584 16.092 14.834 0 37.51-4.214 52.604-16.093 1.996-1.58 4.843-1.58 6.856 0 14.717 11.572 26.354 16.092 41.504 16.092 1.32 0 2.532.464 3.487 1.233l13.043-22.732c-18.58-1.16-48.422-5.983-61.533-15.68-17.043 11.69-39.72 15.933-55.963 15.933-16.264 0-38.98-4.243-56.025-15.974-17.04 11.72-39.764 15.975-56.028 15.975-16.27 0-38.98-4.243-56.033-15.974-16.288 11.21-37.77 15.576-53.854 15.94L94.7 352.22zm275.316-338.41l-.252.187H135.35L17.89 218.496l58.785 102.346c.564.113.86.19 1.056.238l3.164-.15c7.716 0 17.553-1.17 27.343-3.937-2.085-2.938-2.172-6.736-2.172-10.47 0-16.14 7.905-75.63 44.928-93.48-.064-7.186 1.44-14.505 3.757-21.345-16.043-7.353-46.893-21.534-49.308-23.022-1.44-.9-5.778-3.6-5.155-8.262.396-3.038 2.626-5.198 6.627-6.416l18.252-5.573c5.225-1.597 32.87 4.007 55.155 8.983.91.2 1.653.644 2.308 1.202 8.296-1.954 21.49-4.482 42.947-8.208l9.66-1.695c19.7-3.51 84.618 15.554 91.938 17.737.338.102.604.324.91.48 37.25-9.327 65.87-16.447 66.613-16.63 5.396-1.17 10.725 2.267 14.018 5.884 4.936 5.4 6.756 12.254 4.87 18.328l-.538 1.744c-19.125 62.48-53.97 110.03-82.99 141.367 9.79-2.51 19.707-6.585 27.567-12.788 2.015-1.583 4.85-1.583 6.865 0 14.166 11.145 48.185 15.78 64.235 16.122l58.836-102.547L370.015 13.812zM117.164 306.53c0 1.105 0 3.726.233 4.42.84.593 1.343 1.384 1.673 2.198 5.175-2.223 10.125-4.93 14.423-8.316 2.02-1.582 4.847-1.582 6.866 0 15.125 11.887 37.79 16.11 52.603 16.11 14.823 0 37.488-4.224 52.605-16.11 2-1.582 4.848-1.582 6.863 0 15.116 11.887 37.77 16.11 52.583 16.11 2.178 0 4.55-.118 7.02-.292.152-.207.207-.41.393-.598 25.62-25.78 58.646-66.448 80.52-120.506L125.27 263.614c-6.18 17.84-8.108 35.856-8.108 42.917zm10.75-147.4l-10.187 3.158c9.15 4.38 25.226 11.808 41.17 19.107 2.982-6.464 6.124-11.863 8.42-15.48-19.617-4.147-36.218-7.016-39.402-6.784zm109.29.478l-9.725 1.705c-13.527 2.35-44.556 7.753-50.75 10.412-3.914 6.178-13.243 22.345-14.57 37.37 22.897-6.213 88.844-22.854 144.74-36.872-23.864-6.465-58.397-14.69-69.697-12.615zm-11.44 45.837l-12.813 25.77 73.27-17.54 14.1-28.387c-24.82 6.242-51.014 12.836-74.166 18.717-.102.487-.158.975-.39 1.44zm74.49 4.867l94.674-22.665c.8-.188 1.613-.178 2.36-.02 1.73-4.835 3.583-9.568 5.122-14.614l.56-1.82c.76-2.413-.452-4.812-1.253-6.01-1.787-2.717-4.178-3.98-4.863-4.06-.637.178-38.387 9.593-83.758 20.97.174 1.077.098 2.198-.424 3.25l-12.418 24.97z"/><path fill="#fff" d="M379.145 0H126.383L0 219.497 77.017 353.26l6.365 11.06 43 74.683h252.764L505.528 219.5 379.145 0zm-66.047 182.09c45.37-11.376 83.12-20.79 83.758-20.97.686.082 3.076 1.344 4.86 4.06.802 1.2 2.015 3.598 1.257 6.012l-.562 1.82c-1.535 5.045-3.387 9.778-5.12 14.612-.745-.157-1.56-.168-2.36.02L300.26 210.31l12.42-24.97c.517-1.05.593-2.172.42-3.25zm-26.88 31.583l-73.267 17.54 12.814-25.77c.23-.465.288-.953.39-1.44 23.152-5.88 49.345-12.474 74.166-18.716l-14.1 28.385zm-124.056-4.58c1.326-15.025 10.655-31.192 14.57-37.37 6.193-2.66 37.222-8.062 50.747-10.412l9.723-1.704c11.3-2.074 45.833 6.15 69.7 12.615-55.9 14.02-121.846 30.66-144.742 36.873zm-3.267-27.7c-15.943-7.3-32.02-14.728-41.17-19.107l10.19-3.157c3.184-.23 19.784 2.637 39.4 6.785-2.295 3.616-5.437 9.015-8.42 15.48zm3.438 39.146c8.77-2.43 27.19-7.2 50.013-13.02l-13.233 26.622c-.063.135-.054.28-.107.422l-68.49 16.398c6.88-14.105 17.005-26.323 31.817-30.422zm230.613-20.993c-21.873 54.057-54.898 94.727-80.52 120.506-.185.188-.238.39-.392.598-2.472.175-4.842.294-7.02.294-14.813 0-37.468-4.227-52.583-16.11-2.014-1.583-4.86-1.583-6.862 0-15.117 11.888-37.782 16.11-52.605 16.11-14.813 0-37.48-4.227-52.605-16.11-2.02-1.583-4.846-1.583-6.866 0-4.297 3.388-9.247 6.095-14.422 8.315-.33-.815-.833-1.606-1.673-2.2-.233-.693-.233-3.314-.233-4.418 0-7.062 1.93-25.078 8.106-42.914l267.678-64.072zm-256.014 116.51c17.055 11.73 39.763 15.975 56.033 15.975 16.265 0 38.988-4.254 56.026-15.975 17.047 11.73 39.765 15.975 56.028 15.975 16.242 0 38.918-4.244 55.963-15.932 13.11 9.694 42.954 14.52 61.534 15.68l-13.045 22.733c-.954-.77-2.167-1.234-3.487-1.234-15.148 0-26.79-4.52-41.506-16.094-2.014-1.58-4.86-1.58-6.854 0-15.096 11.88-37.77 16.092-52.604 16.092-14.813 0-37.488-4.214-52.585-16.093-2.014-1.58-4.862-1.58-6.863 0-15.095 11.88-37.77 16.092-52.604 16.092-14.824 0-37.5-4.214-52.605-16.093-2.02-1.58-4.845-1.58-6.865 0-10.9 8.594-25.776 13.158-38.795 15.035L83.085 331.99c16.08-.36 37.563-4.728 53.85-15.937zM370.176 423H135.35l-34.74-60.486c12.33-2.23 25.48-6.646 36.312-14.098 17.033 11.707 39.752 15.94 56.032 15.94 16.275 0 39.01-4.245 56.027-15.94 17.036 11.707 39.755 15.94 56.038 15.94 16.244 0 38.94-4.233 55.963-15.92 14.56 10.778 27.364 15.487 42.866 15.882L370.176 423zm58.55-102.047c-16.054-.342-50.07-4.98-64.237-16.12-2.018-1.583-4.854-1.583-6.867 0-7.86 6.202-17.777 10.274-27.566 12.786 29.02-31.34 63.865-78.89 82.99-141.37l.54-1.744c1.884-6.074.06-12.93-4.872-18.327-3.293-3.618-8.62-7.056-14.016-5.886-.745.184-29.368 7.304-66.618 16.632-.305-.157-.57-.38-.908-.48-7.32-2.184-72.238-21.247-91.94-17.74l-9.658 1.696c-21.457 3.726-34.65 6.254-42.946 8.208-.654-.557-1.396-1-2.306-1.2-22.285-4.977-49.93-10.58-55.154-8.984L106.915 154c-4 1.217-6.23 3.377-6.627 6.415-.623 4.662 3.714 7.363 5.155 8.262 2.415 1.488 33.265 15.67 49.307 23.022-2.315 6.836-3.82 14.156-3.757 21.342-37.022 17.852-44.928 77.342-44.928 93.48 0 3.733.087 7.534 2.172 10.472-9.79 2.77-19.627 3.938-27.343 3.938l-3.162.15c-.194-.05-.49-.125-1.056-.238L17.89 218.498l117.46-204.5h234.414l.252-.186L487.56 218.406l-58.835 102.547z"/></svg>