<svg xmlns="http://www.w3.org/2000/svg" width="506" height="440" viewBox="2.999 39.649 506 440" enable-background="new 2.999 39.649 506 440"><path opacity=".8" fill="#F16D2A" enable-background="new" d="M299.568 209.993h66.178v-23.995h-72.514c3.05 7.588 5.202 15.63 6.336 23.995zm.772 8.09c.102 1.875.158 3.762.158 5.662 0 7.785-.88 15.364-2.54 22.647h2.54v31.814H284.64c-2.093 3.278-4.372 6.428-6.816 9.437H300.5v31.812h-31.814V297.48c-3.22 3.04-6.645 5.87-10.244 8.474v13.5h-25.847c-10.478 3.665-21.738 5.663-33.466 5.663-13.756 0-26.867-2.744-38.826-7.707v74.03h205.44V218.084H300.34zm-82.88 142.622h-31.814v-31.813h31.813v31.813zm40.98 0h-31.813v-31.813h31.812v31.813zm42.06 0h-31.814v-31.813H300.5v31.813zm40.98 0h-31.814v-31.813h31.814v31.813zm0-41.25h-31.814V287.64h31.814v31.812zm0-41.25h-31.814v-31.813h31.814v31.814zm31.772-224.742l-.252.186H138.586l-117.46 204.5 117.46 204.5h234.826l117.385-204.594L373.252 53.463zM152.215 399.53v-85.905c-32.368-16.93-54.462-50.82-54.462-89.88 0-55.987 45.387-101.374 101.374-101.374 39.49 0 73.705 22.586 90.44 55.54h84.267v221.62h-221.62zm33.433-83.464c4.426.636 8.927.964 13.48.964 6.227 0 12.36-.605 18.333-1.79 3.106-.615 6.163-1.39 9.17-2.313 11.562-3.55 22.345-9.35 31.812-17.175 2.296-1.898 4.517-3.912 6.648-6.045 3.603-3.604 6.867-7.45 9.793-11.502 6.94-9.61 11.938-20.378 14.776-31.813 1.814-7.32 2.753-14.91 2.753-22.647 0-1.897-.063-3.785-.177-5.662-.16-2.72-.434-5.42-.823-8.09-1.226-8.327-3.558-16.385-6.925-23.994-1.22-2.76-2.575-5.458-4.065-8.09-4.12-7.28-9.254-14.05-15.332-20.13-17.617-17.62-41.044-27.322-65.96-27.322-24.92 0-48.345 9.703-65.964 27.322-17.62 17.618-27.322 41.045-27.322 65.962s9.704 48.342 27.323 65.96c5.776 5.776 12.18 10.696 19.052 14.708 2.63 1.535 5.327 2.937 8.087 4.2 8.01 3.67 16.526 6.185 25.345 7.454zm-40.442-89.357v-8.09h49.878v-71.986h8.088v80.074h-57.966z"/><path fill="#fff" d="M382.38 39.65H129.62L3.236 259.147l126.38 219.5H382.38l126.383-219.5-126.382-219.5zm-8.968 423H138.586L21.126 258.147l117.46-204.5H373l.252-.186 117.545 204.595L373.412 462.65zM309.7 246.4h31.8v31.8h-31.8zm0 41.2h31.8v31.8h-31.8zm0 41.3h31.8v31.8h-31.8zm-41 0h31.8v31.8h-31.8zm-42.1 0h31.8v31.8h-31.8zm-41 0h31.8v31.8h-31.8zm103.966-150.99c-16.734-32.956-50.948-55.54-90.44-55.54-55.986 0-101.373 45.387-101.373 101.374 0 39.06 22.094 72.95 54.462 89.88v85.904h221.62V177.91h-84.27zm-156.4 111.796c-17.62-17.62-27.323-41.044-27.323-65.96s9.703-48.345 27.322-65.963c17.62-17.62 41.045-27.323 65.963-27.323 24.917 0 48.344 9.704 65.962 27.323 6.078 6.077 11.213 12.847 15.332 20.13 1.49 2.63 2.846 5.33 4.066 8.087 3.367 7.61 5.7 15.667 6.924 23.995.39 2.67.664 5.37.824 8.09.11 1.876.176 3.764.176 5.66 0 7.737-.938 15.33-2.754 22.648-2.84 11.436-7.836 22.203-14.775 31.813-2.926 4.05-6.19 7.897-9.793 11.502-2.133 2.133-4.354 4.146-6.648 6.045-9.466 7.826-20.25 13.626-31.812 17.175-3.006.923-6.063 1.697-9.167 2.312-5.973 1.186-12.106 1.79-18.333 1.79-4.553 0-9.054-.327-13.48-.963-8.82-1.27-17.337-3.784-25.344-7.452-2.76-1.266-5.458-2.666-8.088-4.2-6.875-4.015-13.278-8.935-19.053-14.71zM365.743 391.44h-205.44v-74.03c11.958 4.963 25.07 7.707 38.823 7.707 11.728 0 22.988-1.998 33.466-5.662h25.85v-13.5c3.6-2.604 7.02-5.436 10.243-8.475v21.975H300.5v-31.812h-22.678c2.445-3.01 4.725-6.156 6.818-9.437h15.856v-31.814h-2.54c1.66-7.283 2.54-14.862 2.54-22.647 0-1.9-.058-3.787-.158-5.662h65.404l.002 173.358zm.002-181.447h-66.178c-1.135-8.365-3.287-16.407-6.336-23.995h72.515v23.995zM203.17 146.635h-8.087v71.987h-49.877v8.087h57.965z"/></svg>